<svg width="22" height="25" viewBox="0 0 22 25" fill="none" xmlns="http://www.w3.org/2000/svg">
<path d="M18.5 1H3.5C2.11929 1 1 2.02974 1 3.3V21.7C1 22.9703 2.11929 24 3.5 24H18.5C19.8807 24 21 22.9703 21 21.7V3.3C21 2.02974 19.8807 1 18.5 1Z" stroke="#A3A3A3" stroke-width="2" stroke-linecap="round" stroke-linejoin="round"/>
<path d="M11 19.3997C13.7614 19.3997 16 17.3402 16 14.7997C16 12.2592 13.7614 10.1997 11 10.1997C8.23858 10.1997 6 12.2592 6 14.7997C6 17.3402 8.23858 19.3997 11 19.3997Z" stroke="#A3A3A3" stroke-width="2" stroke-linecap="round" stroke-linejoin="round"/>
<path d="M11 5.6001H11.0131" stroke="#A3A3A3" stroke-width="2" stroke-linecap="round" stroke-linejoin="round"/>
</svg>
